<svg width="34" height="34" viewBox="0 0 34 34" fill="none" xmlns="http://www.w3.org/2000/svg">
<g clip-path="url(#clip0_72_27)">
<path d="M12.0193 28.953C12.0193 30.6007 13.3599 31.9412 15.0076 31.9412C16.6553 31.9412 17.9958 30.6007 17.9958 28.953C17.9958 27.3052 16.6553 25.9647 15.0076 25.9647C13.3599 25.9647 12.0193 27.3052 12.0193 28.953ZM15.0076 27.9569C15.5568 27.9569 16.0037 28.4037 16.0037 28.953C16.0037 29.5022 15.5568 29.949 15.0076 29.949C14.4583 29.949 14.0115 29.5022 14.0115 28.953C14.0115 28.4037 14.4583 27.9569 15.0076 27.9569Z" fill="#444444"/>
<path d="M22.0465 28.953C22.0465 30.6007 23.387 31.9412 25.0347 31.9412C26.6825 31.9412 28.023 30.6007 28.023 28.953C28.023 27.3052 26.6825 25.9647 25.0347 25.9647C23.387 25.9647 22.0465 27.3052 22.0465 28.953ZM25.0347 27.9569C25.584 27.9569 26.0308 28.4037 26.0308 28.953C26.0308 29.5022 25.584 29.949 25.0347 29.949C24.4855 29.949 24.0387 29.5022 24.0387 28.953C24.0387 28.4037 24.4855 27.9569 25.0347 27.9569Z" fill="#444444"/>
<path d="M33.0034 6.04315H7.79046C7.4494 4.84925 7.13159 3.73683 6.8586 2.78133C6.73648 2.35368 6.34555 2.05884 5.90083 2.05884H0.996078C0.445977 2.05884 0 2.50482 0 3.05492C0 3.60502 0.445977 4.05099 0.996078 4.05099H5.14946C6.26334 7.95004 8.86735 17.0644 9.95906 20.8854L9.58167 21.6401C8.58726 23.6291 10.0355 25.9647 12.2545 25.9647H29.0191C29.5692 25.9647 30.0152 25.5187 30.0152 24.9686C30.0152 24.4185 29.5692 23.9726 29.0191 23.9726H12.2545C11.5137 23.9726 11.0326 23.1931 11.3635 22.531L11.6388 21.9804H29.0191C29.4638 21.9804 29.8547 21.6856 29.9768 21.258L33.9612 7.31288C34.1426 6.67772 33.6655 6.04315 33.0034 6.04315ZM28.2678 19.9882H11.7746C11.2319 18.0886 9.71296 12.7723 8.35962 8.03531H31.6829L28.2678 19.9882Z" fill="#444444"/>
</g>
<defs>
<clipPath id="clip0_72_27">
<rect width="34" height="34" fill="white"/>
</clipPath>
</defs>
</svg>
