<svg width="16" height="14" viewBox="0 0 16 14" fill="none" xmlns="http://www.w3.org/2000/svg">
<path d="M14.5 0H1.5C0.671875 0 0 0.671875 0 1.5V12.5C0 13.3281 0.671875 14 1.5 14H14.5C15.3281 14 16 13.3281 16 12.5V1.5C16 0.671875 15.3281 0 14.5 0ZM11.8875 9.07812C12.0375 9.22812 12.0375 9.47188 11.8875 9.62187L10.6219 10.8875C10.4719 11.0375 10.2281 11.0375 10.0781 10.8875L8 8.79062L5.92188 10.8875C5.77187 11.0375 5.52813 11.0375 5.37813 10.8875L4.1125 9.62187C3.9625 9.47188 3.9625 9.22812 4.1125 9.07812L6.20937 7L4.1125 4.92188C3.9625 4.77187 3.9625 4.52813 4.1125 4.37813L5.37813 3.1125C5.52813 2.9625 5.77187 2.9625 5.92188 3.1125L8 5.20937L10.0781 3.1125C10.2281 2.9625 10.4719 2.9625 10.6219 3.1125L11.8875 4.37813C12.0375 4.52813 12.0375 4.77187 11.8875 4.92188L9.79062 7L11.8875 9.07812Z" fill="#D10037"/>
</svg>
