<svg width="20" height="20" viewBox="0 0 20 20" fill="none" xmlns="http://www.w3.org/2000/svg">
<path d="M9.18374 4.66937C9.29819 4.78378 9.48366 4.78375 9.59804 4.66937L10.8162 3.45117C10.9307 3.33671 10.9307 3.15125 10.8162 3.03683C10.7019 2.92246 10.5164 2.92246 10.4019 3.03683L9.18374 4.25503C9.06929 4.36945 9.06929 4.55492 9.18374 4.66937Z" fill="#444444"/>
<path d="M18.5219 3.63281C18.6837 3.63281 18.8149 3.50168 18.8149 3.33984V1.75758C18.8149 0.788477 18.0264 0 17.0573 0H2.94292C1.97378 0 1.1853 0.788477 1.1853 1.75758V6.44332C1.1853 7.11254 1.70858 7.66156 2.36741 7.70344V16.9665C1.6948 17.0972 1.1853 17.6904 1.1853 18.4007V19.2329C1.1853 19.6559 1.52944 20 1.95241 20H18.0478C18.4708 20 18.8149 19.6559 18.8149 19.2329V18.4007C18.8149 17.6904 18.3054 17.0971 17.6328 16.9665V7.70344C18.2916 7.66156 18.8149 7.11254 18.8149 6.44332V4.71535C18.8149 4.55352 18.6837 4.42238 18.5219 4.42238C18.3601 4.42238 18.2289 4.55352 18.2289 4.71535V6.44332C18.2289 6.81664 17.9252 7.12035 17.5519 7.12035H2.44827C2.07495 7.12035 1.77124 6.81664 1.77124 6.44332V1.75758C1.77124 1.11152 2.29687 0.585938 2.94292 0.585938H17.0573C17.7034 0.585938 18.229 1.11152 18.229 1.75758V3.33984C18.229 3.50168 18.3601 3.63281 18.5219 3.63281ZM9.36577 9.6198H10.6344V10.1739C10.6344 10.1953 10.617 10.2127 10.5956 10.2127H9.4046C9.38319 10.2127 9.36577 10.1953 9.36577 10.1739V9.6198ZM8.67421 9.03387C8.42839 9.03387 8.22835 8.83387 8.22835 8.58805V7.70633H11.7719V8.58805C11.7719 8.83387 11.5719 9.03387 11.326 9.03387H8.67421ZM8.67421 9.6198H8.77987V10.1739C8.77987 10.5184 9.06015 10.7987 9.40464 10.7987H10.5956C10.9401 10.7987 11.2204 10.5184 11.2204 10.1739V9.6198H11.3261C11.895 9.6198 12.3579 9.15695 12.3579 8.58805V7.70633H17.0469V16.9395H12.458L12.5478 16.3482H13.2635C13.6257 16.3482 13.9423 16.1032 14.0332 15.7525L14.3308 14.6048C14.393 14.3648 14.3417 14.1147 14.19 13.9186C14.0382 13.7226 13.809 13.6101 13.561 13.6101H12.9637L13.0286 13.1827C13.1301 12.5141 12.6119 11.9123 11.9365 11.9123H8.06378C7.38745 11.9123 6.8703 12.515 6.97171 13.1827L7.08776 13.9471L7.54222 16.9395H2.95335V7.70629H7.64241V8.58801C7.64241 9.15695 8.10526 9.6198 8.67421 9.6198ZM8.13483 16.9394L7.71819 14.196H8.19269C8.35448 14.196 8.48565 14.0649 8.48565 13.903C8.48565 13.7412 8.35448 13.6101 8.19269 13.6101H7.62921L7.55097 13.0947C7.50327 12.7807 7.74659 12.4982 8.06374 12.4982H11.9365C12.2541 12.4982 12.4969 12.7812 12.4492 13.0947L12.371 13.6101C11.3352 13.6101 10.1524 13.6101 9.56237 13.6101C9.40058 13.6101 9.26941 13.7412 9.26941 13.903C9.26941 14.0649 9.40058 14.196 9.56237 14.196H12.282L11.8654 16.9394H8.13483ZM12.8746 14.196H13.561C13.6503 14.196 13.703 14.2469 13.7265 14.2772C13.7499 14.3075 13.7859 14.3713 13.7635 14.4578L13.466 15.6055C13.442 15.6977 13.3587 15.7622 13.2634 15.7622H12.6368L12.8746 14.196ZM18.229 18.4007V19.2329C18.229 19.3329 18.1477 19.4141 18.0478 19.4141H1.95241C1.85249 19.4141 1.77124 19.3329 1.77124 19.2329V18.4007C1.77124 17.9181 2.1639 17.5254 2.64655 17.5254H17.3536C17.8363 17.5254 18.229 17.918 18.229 18.4007Z" fill="#444444"/>
<path d="M7.64233 3.85322C7.64233 5.15326 8.69999 6.21091 10 6.21091C11.3001 6.21091 12.3577 5.15326 12.3577 3.85322C12.3577 2.55318 11.3001 1.49548 10 1.49548C8.69999 1.49548 7.64233 2.55314 7.64233 3.85322ZM11.7718 3.85322C11.7718 4.83017 10.977 5.62498 10 5.62498C9.02308 5.62498 8.22827 4.83013 8.22827 3.85322C8.22827 2.8763 9.02308 2.08142 10 2.08142C10.977 2.08142 11.7718 2.87626 11.7718 3.85322Z" fill="#444444"/>
<path d="M3.44761 2.698C3.06659 2.698 2.75659 3.00804 2.75659 3.38905V4.3173C2.75659 4.69835 3.06659 5.00831 3.44761 5.00831H5.92026C6.30132 5.00831 6.61132 4.69831 6.61132 4.3173V3.38909C6.61132 3.00804 6.30132 2.69804 5.92026 2.69804L3.44761 2.698ZM6.02538 3.38909V4.31733C6.02538 4.37526 5.97823 4.42241 5.92026 4.42241H3.44761C3.38968 4.42241 3.34253 4.37526 3.34253 4.31733V3.38909C3.34253 3.33112 3.38968 3.28397 3.44761 3.28397H5.92026C5.97823 3.28394 6.02538 3.33108 6.02538 3.38909Z" fill="#444444"/>
<path d="M16.5524 2.698H14.0797C13.6987 2.698 13.3887 3.00804 13.3887 3.38905V4.3173C13.3887 4.69835 13.6987 5.00831 14.0797 5.00831H16.5524C16.9334 5.00831 17.2434 4.69831 17.2434 4.3173V3.38909C17.2434 3.00804 16.9334 2.698 16.5524 2.698ZM16.6575 4.3173C16.6575 4.37522 16.6104 4.42237 16.5524 4.42237H14.0798C14.0218 4.42237 13.9746 4.37522 13.9746 4.3173V3.38909C13.9746 3.33112 14.0218 3.28397 14.0798 3.28397H16.5524C16.6104 3.28397 16.6575 3.33112 16.6575 3.38909V4.3173Z" fill="#444444"/>
</svg>
