<svg width="60" height="60" viewBox="0 0 60 60" fill="none" xmlns="http://www.w3.org/2000/svg">
<path d="M14 39.5C10.691 39.5 8.00005 42.191 8.00005 45.5C8.00005 48.809 10.691 51.5 14 51.5C17.3091 51.5 20 48.809 20 45.5C20 42.191 17.309 39.5 14 39.5ZM14 49.5C11.794 49.5 10.0001 47.7059 10.0001 45.5C10.0001 43.2939 11.7941 41.5 14 41.5C16.206 41.5 18 43.2941 18 45.5C18 47.7059 16.206 49.5 14 49.5Z" fill="#444444"/>
<path d="M48 39.5C44.691 39.5 42 42.191 42 45.5C42 48.809 44.691 51.5 48 51.5C51.309 51.5 54 48.809 54 45.5C54 42.191 51.309 39.5 48 39.5ZM48 49.5C45.7939 49.5 44 47.7059 44 45.5C44 43.2939 45.7941 41.5 48 41.5C50.2061 41.5 52 43.2941 52 45.5C52 47.7059 50.2061 49.5 48 49.5Z" fill="#444444"/>
<path d="M59.841 33.9591L50.841 19.959C50.657 19.673 50.34 19.5 49.9999 19.5H39C38.447 19.5 38 19.948 38 20.5V45.4999C38 46.0529 38.447 46.4999 39 46.4999H43V44.4998H40V21.5H49.4539L58 34.794V44.5001H52.9999V46.5H58.9999C59.5529 46.5 59.9999 46.053 59.9999 45.5V34.5C60 34.309 59.945 34.12 59.841 33.9591Z" fill="#444444"/>
<path d="M44 32.5V25.5H52.0001V23.5H43.0001C42.4471 23.5 42.0001 23.948 42.0001 24.5V33.5C42.0001 34.053 42.4471 34.4999 43.0001 34.4999H58.0001V32.4999H44V32.5Z" fill="#444444"/>
<path d="M39 12.5H0.999961C0.448008 12.5 0 12.948 0 13.5V45.5C0 46.053 0.448008 46.5 0.999961 46.5H9V44.4999H2.00004V14.4999H38V44.4999H19V46.5H39C39.553 46.5 40 46.053 40 45.5V13.5C40 12.948 39.553 12.5 39 12.5Z" fill="#444444"/>
<path d="M6.99995 40.5H0.999954V42.5H6.99995V40.5Z" fill="#444444"/>
<path d="M38 40.5H21V42.5H38V40.5Z" fill="#444444"/>
<path d="M58.9999 40.5H55V42.5H58.9999V40.5Z" fill="#444444"/>
<path d="M39 16.5H3.99995V18.5H39V16.5Z" fill="#444444"/>
<path d="M15 44.5H13V46.5H15V44.5Z" fill="#444444"/>
<path d="M49.0001 44.5H47V46.5H49.0001V44.5Z" fill="#444444"/>
<path d="M18 8.5H3.99995V10.5H18V8.5Z" fill="#444444"/>
<path d="M2.00004 8.5H0V10.5H2.00004V8.5Z" fill="#444444"/>
</svg>
