<svg width="20" height="20" viewBox="0 0 20 20" fill="none" xmlns="http://www.w3.org/2000/svg">
<g clip-path="url(#clip0_2_1695)">
<path d="M17.7816 6.88493C17.9437 6.88493 18.0751 6.7535 18.0751 6.59139V1.01331C18.0751 0.45456 17.6205 0 17.0618 0H2.93811C2.37936 0 1.9248 0.45456 1.9248 1.01331V18.9867C1.9248 19.5454 2.37936 20 2.93811 20H4.93068C5.09279 20 5.22422 19.8686 5.22422 19.7065C5.22422 19.5443 5.09279 19.4129 4.93068 19.4129H2.93811C2.70312 19.4129 2.51189 19.2217 2.51189 18.9867V17.6908H17.488V18.9867C17.488 19.2217 17.2968 19.4129 17.0618 19.4129H6.30054C6.13843 19.4129 6.007 19.5443 6.007 19.7065C6.007 19.8686 6.13843 20 6.30054 20H17.0618C17.6205 20 18.0751 19.5454 18.0751 18.9867V7.96125C18.0751 7.79914 17.9437 7.66771 17.7816 7.66771C17.6194 7.66771 17.488 7.79914 17.488 7.96125V17.1037H2.51189V4.38356H5.66895L6.0661 5.09898C6.39741 5.69577 7.02727 6.06654 7.70985 6.06654H12.2899C12.9725 6.06654 13.6023 5.69577 13.9337 5.09898L14.3308 4.38356H17.488V6.59139C17.488 6.7535 17.6194 6.88493 17.7816 6.88493ZM13.4204 4.81405C13.1925 5.22446 12.7593 5.47945 12.2899 5.47945H7.70985C7.24042 5.47945 6.80723 5.22446 6.5794 4.81405L6.34046 4.38356H13.6593L13.4204 4.81405ZM2.51189 3.79648V1.01331C2.51189 0.778278 2.70308 0.587084 2.93811 0.587084H17.0618C17.2968 0.587084 17.488 0.778278 17.488 1.01331V3.79648H2.51189Z" fill="#444444"/>
<path d="M15.6098 0.978516C14.9515 0.978516 14.416 1.51401 14.416 2.17225C14.416 2.83049 14.9515 3.36599 15.6098 3.36599C16.268 3.36599 16.8035 2.83049 16.8035 2.17225C16.8035 1.51401 16.268 0.978516 15.6098 0.978516ZM15.6098 2.77891C15.2752 2.77891 15.0031 2.50677 15.0031 2.17225C15.0031 1.83773 15.2752 1.5656 15.6098 1.5656C15.9443 1.5656 16.2164 1.83773 16.2164 2.17225C16.2164 2.50677 15.9443 2.77891 15.6098 2.77891Z" fill="#444444"/>
<path d="M9.07355 1.25244H3.90721C3.63742 1.25244 3.41797 1.47189 3.41797 1.74168V2.60273C3.41797 2.87252 3.63742 3.09197 3.90721 3.09197H9.07355C9.34333 3.09197 9.56278 2.87252 9.56278 2.60273V1.74168C9.56278 1.47189 9.34333 1.25244 9.07355 1.25244ZM8.9757 2.50489H4.00505V1.83953H8.9757V2.50489Z" fill="#444444"/>
<path d="M13.1439 1.31116C12.9818 1.31116 12.8503 1.44259 12.8503 1.6047V2.73973C12.8503 2.90184 12.9818 3.03327 13.1439 3.03327C13.306 3.03327 13.4374 2.90184 13.4374 2.73973V1.6047C13.4374 1.44259 13.306 1.31116 13.1439 1.31116Z" fill="#444444"/>
<path d="M11.7349 1.31116C11.5728 1.31116 11.4414 1.44259 11.4414 1.6047V2.73973C11.4414 2.90184 11.5728 3.03327 11.7349 3.03327C11.8971 3.03327 12.0285 2.90184 12.0285 2.73973V1.6047C12.0285 1.44259 11.8971 1.31116 11.7349 1.31116Z" fill="#444444"/>
</g>
<defs>
<clipPath id="clip0_2_1695">
<rect width="20" height="20" fill="white"/>
</clipPath>
</defs>
</svg>
