<svg width="20" height="20" viewBox="0 0 20 20" fill="none" xmlns="http://www.w3.org/2000/svg">
<g clip-path="url(#clip0_2_1786)">
<path d="M18.8778 2.31227C19.0396 2.31227 19.1708 2.18109 19.1708 2.0193V1.28957C19.1708 0.578516 18.5923 0 17.8812 0H2.11867C1.40762 0 0.829102 0.578516 0.829102 1.28957V15.0153C0.829102 15.1771 0.960273 15.3082 1.12207 15.3082C1.28387 15.3082 1.41504 15.1771 1.41504 15.0153V4.7518H18.5849V17.3351C18.5849 17.7231 18.2692 18.0387 17.8812 18.0387C17.1417 18.0387 2.86992 18.0387 2.11871 18.0387C1.7307 18.0387 1.41508 17.723 1.41508 17.3351V16.3825C1.41508 16.2207 1.28391 16.0895 1.12211 16.0895C0.960312 16.0895 0.829141 16.2207 0.829141 16.3825V17.3351C0.829141 17.9921 1.32316 18.5355 1.95918 18.6144V19.4678C1.95918 19.7612 2.19789 20 2.49133 20H4.23344C4.52687 20 4.76562 19.7612 4.76562 19.4678V18.6246H15.2343V19.4678C15.2343 19.7612 15.473 20 15.7665 20H17.5086C17.8021 20 18.0408 19.7612 18.0408 19.4678V18.6145C18.6768 18.5356 19.1708 17.9921 19.1708 17.3351C19.1708 17.2014 19.1708 3.50461 19.1708 3.38652C19.1708 3.22473 19.0396 3.09355 18.8778 3.09355C18.7161 3.09355 18.5849 3.22473 18.5849 3.38652V4.1659H1.41504V1.28957C1.41504 0.901602 1.7307 0.585938 2.11867 0.585938H17.8812C18.2692 0.585938 18.5848 0.901602 18.5848 1.28957V2.0193C18.5849 2.18109 18.7161 2.31227 18.8778 2.31227ZM4.17965 19.4141H2.54508V18.6247H4.17965V19.4141ZM17.4548 19.4141H15.8203V18.6247H17.4548V19.4141Z" fill="#444444"/>
<path d="M16.0861 1.0564C15.3585 1.0564 14.7666 1.64831 14.7666 2.37589C14.7666 3.10347 15.3585 3.69538 16.0861 3.69538C16.7913 3.69538 17.369 3.13925 17.4039 2.44249C17.4051 2.43714 17.4057 2.40651 17.4057 2.37589C17.4057 2.34526 17.4051 2.31464 17.4039 2.30929C17.3691 1.61253 16.7913 1.0564 16.0861 1.0564ZM16.0861 3.10944C15.6816 3.10944 15.3525 2.78038 15.3525 2.37589C15.3525 1.9714 15.6816 1.64233 16.0861 1.64233C16.384 1.64233 16.6405 1.82116 16.7552 2.0769H16.0861C15.9209 2.0769 15.7871 2.21073 15.7871 2.37589C15.7871 2.54104 15.9209 2.67487 16.0861 2.67487H16.7552C16.6405 2.93058 16.384 3.10944 16.0861 3.10944Z" fill="#444444"/>
<path d="M9.11646 2.37589C9.11646 3.10343 9.70837 3.69538 10.4359 3.69538C11.1634 3.69538 11.7554 3.10347 11.7554 2.37589C11.7554 1.64831 11.1635 1.0564 10.4359 1.0564C9.70833 1.0564 9.11646 1.64831 9.11646 2.37589ZM11.1695 2.37589C11.1695 2.78034 10.8404 3.10944 10.4359 3.10944C10.0315 3.10944 9.70243 2.78038 9.70243 2.37589C9.70243 2.07558 9.88399 1.81714 10.143 1.70382V2.37589C10.143 2.53769 10.2742 2.66886 10.4359 2.66886C10.5977 2.66886 10.7289 2.53769 10.7289 2.37589V1.70378C10.9879 1.81714 11.1695 2.07558 11.1695 2.37589Z" fill="#444444"/>
<path d="M5.72632 2.37589C5.72632 3.10343 6.31823 3.69538 7.04581 3.69538C7.77339 3.69538 8.36526 3.10347 8.36526 2.37589C8.36526 1.64831 7.77335 1.0564 7.04581 1.0564C6.31827 1.0564 5.72632 1.64831 5.72632 2.37589ZM7.77933 2.37589C7.77933 2.78034 7.45026 3.10944 7.04581 3.10944C6.64136 3.10944 6.31226 2.78038 6.31226 2.37589C6.31226 2.07558 6.49386 1.81714 6.75284 1.70382V2.37589C6.75284 2.53769 6.88401 2.66886 7.04581 2.66886C7.20761 2.66886 7.33878 2.53769 7.33878 2.37589V1.70378C7.59772 1.81714 7.77933 2.07558 7.77933 2.37589Z" fill="#444444"/>
<path d="M2.33618 2.37589C2.33618 3.10343 2.9281 3.69538 3.65567 3.69538C4.38325 3.69538 4.97517 3.10347 4.97517 2.37589C4.97517 1.64831 4.38325 1.0564 3.65567 1.0564C2.9281 1.0564 2.33618 1.64831 2.33618 2.37589ZM4.38923 2.37589C4.38923 2.78034 4.06017 3.10944 3.65567 3.10944C3.25118 3.10944 2.92212 2.78038 2.92212 2.37589C2.92212 2.07558 3.10372 1.81714 3.3627 1.70382V2.37589C3.3627 2.53769 3.49388 2.66886 3.65567 2.66886C3.81747 2.66886 3.94864 2.53769 3.94864 2.37589V1.70378C4.20763 1.81714 4.38923 2.07558 4.38923 2.37589Z" fill="#444444"/>
<path d="M3.11522 17.03H16.8846C17.2659 17.03 17.5762 16.7198 17.5762 16.3384V7.76924C17.8555 7.71268 18.0664 7.46534 18.0664 7.16956V6.37225C18.0664 6.03487 17.7919 5.76038 17.4546 5.76038H2.54522C2.20784 5.76038 1.93335 6.03487 1.93335 6.37225V7.16956C1.93335 7.46534 2.14429 7.71268 2.42362 7.76924V16.3384C2.42362 16.7198 2.7339 17.03 3.11522 17.03ZM16.9903 16.3384C16.9903 16.3967 16.9429 16.4441 16.8846 16.4441H3.11522C3.05694 16.4441 3.00956 16.3967 3.00956 16.3384V7.78147H16.9902V16.3384H16.9903ZM2.51929 6.37225C2.51929 6.35795 2.53093 6.34631 2.54522 6.34631H17.4546C17.4689 6.34631 17.4805 6.35795 17.4805 6.37225C17.4805 7.19999 17.4937 7.19549 17.4546 7.19549C16.752 7.19549 3.25605 7.19549 2.54522 7.19549C2.53093 7.19549 2.51929 7.18385 2.51929 7.16952V6.37225Z" fill="#444444"/>
</g>
<defs>
<clipPath id="clip0_2_1786">
<rect width="20" height="20" fill="white"/>
</clipPath>
</defs>
</svg>
