<svg width="18" height="15" viewBox="0 0 18 15" fill="none" xmlns="http://www.w3.org/2000/svg">
<path d="M16.9421 10.1083L12.7754 14.275C12.7182 14.3364 12.6492 14.3857 12.5725 14.4198C12.4959 14.454 12.4131 14.4724 12.3292 14.4738C12.2453 14.4753 12.1619 14.4599 12.0841 14.4284C12.0063 14.397 11.9356 14.3502 11.8762 14.2909C11.8169 14.2315 11.7701 14.1608 11.7387 14.083C11.7072 14.0052 11.6918 13.9218 11.6933 13.8379C11.6947 13.754 11.7131 13.6712 11.7473 13.5946C11.7814 13.5179 11.8307 13.4489 11.8921 13.3917L14.9913 10.2917H4.00043C3.83467 10.2917 3.6757 10.2258 3.55849 10.1086C3.44128 9.9914 3.37543 9.83243 3.37543 9.66667C3.37543 9.50091 3.44128 9.34194 3.55849 9.22473C3.6757 9.10752 3.83467 9.04167 4.00043 9.04167H16.5004C16.624 9.04178 16.7447 9.0785 16.8474 9.14718C16.9501 9.21586 17.0301 9.31343 17.0773 9.42757C17.1246 9.54171 17.137 9.66729 17.1129 9.78845C17.0888 9.90962 17.0294 10.0209 16.9421 10.1083ZM14.6254 5.50001C14.6254 5.33425 14.5596 5.17527 14.4424 5.05806C14.3252 4.94085 14.1662 4.87501 14.0004 4.87501H3.00959L6.10876 1.77501C6.17017 1.71779 6.21942 1.64879 6.25358 1.57212C6.28774 1.49545 6.30611 1.41269 6.30759 1.32877C6.30907 1.24486 6.29363 1.1615 6.2622 1.08367C6.23076 1.00585 6.18397 0.935156 6.12463 0.875807C6.06528 0.816458 5.99458 0.769671 5.91676 0.738237C5.83894 0.706803 5.75558 0.691366 5.67166 0.692846C5.58774 0.694327 5.50498 0.712695 5.42831 0.746855C5.35165 0.781015 5.28265 0.830267 5.22543 0.891673L1.05876 5.05834C0.971463 5.14574 0.912026 5.25706 0.887956 5.37823C0.863886 5.49939 0.876262 5.62497 0.923521 5.73911C0.970781 5.85324 1.0508 5.95082 1.15348 6.0195C1.25616 6.08818 1.37689 6.1249 1.50043 6.12501H14.0004C14.1662 6.12501 14.3252 6.05916 14.4424 5.94195C14.5596 5.82474 14.6254 5.66577 14.6254 5.50001Z" fill="#444444"/>
</svg>
