<svg width="20" height="20" viewBox="0 0 20 20" fill="none" xmlns="http://www.w3.org/2000/svg">
<g clip-path="url(#clip0_2_1709)">
<path d="M16.6616 3.26453C16.8234 3.26453 16.9546 3.13336 16.9546 2.97156V1.09578C16.9545 0.491562 16.463 0 15.8587 0H4.14131C3.53709 0 3.04553 0.491562 3.04553 1.09582V17.6825C3.04553 18.2867 3.53709 18.7783 4.14135 18.7783H4.346V19.312C4.346 19.6914 4.65463 20 5.03401 20H5.86499C6.24436 20 6.55299 19.6914 6.55299 19.312V18.7783H13.4473V19.312C13.4473 19.6914 13.7559 20 14.1353 20H14.9662C15.3456 20 15.6542 19.6914 15.6542 19.312V18.7783H15.8589C16.4631 18.7783 16.9547 18.2868 16.9547 17.6825V4.34117C16.9547 4.17938 16.8236 4.0482 16.6617 4.0482C16.4999 4.0482 16.3688 4.17938 16.3688 4.34117V6.72684H8.02928C7.86749 6.72684 7.73631 6.85801 7.73631 7.0198C7.73631 7.1816 7.86749 7.31277 8.02928 7.31277H16.3686V17.6825C16.3686 17.9637 16.1399 18.1924 15.8587 18.1924H4.14131C3.86018 18.1924 3.63143 17.9637 3.63143 17.6825V7.31273H6.65971C6.82151 7.31273 6.95268 7.18156 6.95268 7.01977C6.95268 6.85797 6.82151 6.7268 6.65971 6.7268H3.63143V1.09582C3.63143 0.814687 3.86018 0.585938 4.14131 0.585938H15.8587C16.1399 0.585938 16.3686 0.814687 16.3686 1.09582V2.9716C16.3686 3.13336 16.4998 3.26453 16.6616 3.26453ZM5.96698 19.312C5.96698 19.3683 5.9212 19.4141 5.86491 19.4141H5.03393C4.97764 19.4141 4.93186 19.3683 4.93186 19.312V18.7783H5.96698V19.312ZM15.0681 19.312C15.0681 19.3683 15.0224 19.4141 14.9661 19.4141H14.1351C14.0788 19.4141 14.033 19.3683 14.033 19.312V18.7783H15.0681V19.312Z" fill="#444444"/>
<path d="M4.37549 2.28997V5.02286C4.37549 5.4804 4.74771 5.85263 5.20525 5.85263C5.66279 5.85263 6.03502 5.4804 6.03502 5.02286V2.28997C6.03502 1.83243 5.66279 1.46021 5.20525 1.46021C4.74771 1.46021 4.37549 1.83243 4.37549 2.28997ZM5.44912 2.28997V5.02286C5.44912 5.15731 5.33971 5.26669 5.20525 5.26669C5.0708 5.26669 4.96139 5.15731 4.96139 5.02286V2.28997C4.96139 2.15552 5.0708 2.0461 5.20525 2.0461C5.33971 2.0461 5.44912 2.15552 5.44912 2.28997Z" fill="#444444"/>
<path d="M4.37549 8.83062V11.5635C4.37549 12.021 4.74771 12.3933 5.20525 12.3933C5.66279 12.3933 6.03502 12.021 6.03502 11.5635V8.83062C6.03502 8.37308 5.66279 8.00085 5.20525 8.00085C4.74771 8.00085 4.37549 8.37308 4.37549 8.83062ZM5.44912 8.83062V11.5635C5.44912 11.698 5.33971 11.8074 5.20525 11.8074C5.0708 11.8074 4.96139 11.698 4.96139 11.5635V8.83062C4.96139 8.69617 5.0708 8.58675 5.20525 8.58675C5.33971 8.58675 5.44912 8.69617 5.44912 8.83062Z" fill="#444444"/>
</g>
<defs>
<clipPath id="clip0_2_1709">
<rect width="20" height="20" fill="white"/>
</clipPath>
</defs>
</svg>
