<svg width="20" height="20" viewBox="0 0 20 20" fill="none" xmlns="http://www.w3.org/2000/svg">
<g clip-path="url(#clip0_2_1679)">
<path d="M2.23453 13.3197H2.05254C1.89085 13.3197 1.75977 13.4508 1.75977 13.6125C1.75977 13.7742 1.89085 13.9053 2.05254 13.9053H2.23457C2.39626 13.9053 2.52735 13.7742 2.52735 13.6125C2.52735 13.4508 2.39622 13.3197 2.23453 13.3197Z" fill="#444444"/>
<path d="M3.7773 13.3197H3.59527C3.43358 13.3197 3.30249 13.4508 3.30249 13.6125C3.30249 13.7742 3.43358 13.9053 3.59527 13.9053H3.7773C3.93899 13.9053 4.07007 13.7742 4.07007 13.6125C4.07007 13.4508 3.93899 13.3197 3.7773 13.3197Z" fill="#444444"/>
<path d="M5.32027 13.3197H5.13824C4.97654 13.3197 4.84546 13.4508 4.84546 13.6125C4.84546 13.7742 4.97654 13.9053 5.13824 13.9053H5.32027C5.48196 13.9053 5.61304 13.7742 5.61304 13.6125C5.61304 13.4508 5.48196 13.3197 5.32027 13.3197Z" fill="#444444"/>
<path d="M10.2022 15.6371C10.0891 15.529 9.9109 15.529 9.79773 15.6371L9.21725 16.1917C9.10033 16.3034 9.09608 16.4887 9.2078 16.6056C9.26534 16.6658 9.34236 16.6962 9.41954 16.6962C9.49223 16.6962 9.56507 16.6693 9.62175 16.6151L9.7072 16.5334V18.2573C9.7072 18.419 9.83829 18.5501 9.99998 18.5501C10.1617 18.5501 10.2928 18.419 10.2928 18.2573V16.5335L10.3782 16.6151C10.4951 16.7268 10.6804 16.7226 10.7921 16.6056C10.9038 16.4887 10.8996 16.3034 10.7827 16.1917L10.2022 15.6371Z" fill="#444444"/>
<path d="M6.37279 16.2509C6.25962 16.1428 6.08146 16.1427 5.96829 16.2509L5.38781 16.8055C5.27089 16.9172 5.26664 17.1025 5.37836 17.2194C5.4359 17.2796 5.51292 17.3099 5.5901 17.3099C5.66278 17.3099 5.73563 17.2831 5.79231 17.2289L5.87776 17.1472V18.0535C5.87776 18.5115 5.7147 18.9562 5.41861 19.3057L5.27035 19.4806C5.1658 19.604 5.18107 19.7888 5.30446 19.8933C5.35947 19.9399 5.42669 19.9627 5.49356 19.9627C5.57663 19.9627 5.65919 19.9275 5.71708 19.8591L5.86535 19.6842C6.25095 19.2291 6.46332 18.6499 6.46332 18.0535V17.1472L6.54873 17.2289C6.66568 17.3406 6.85103 17.3363 6.96268 17.2194C7.07436 17.1025 7.07014 16.9172 6.95323 16.8055L6.37279 16.2509Z" fill="#444444"/>
<path d="M3.02249 16.251C2.90936 16.1429 2.73119 16.1429 2.61799 16.251L2.03751 16.8056C1.92059 16.9173 1.91637 17.1026 2.02806 17.2195C2.13974 17.3364 2.32505 17.3407 2.44201 17.229L2.52742 17.1473V18.0536C2.52742 18.5116 2.36436 18.9563 2.06827 19.3058L1.92 19.4807C1.81546 19.6041 1.83073 19.7889 1.95412 19.8934C2.00913 19.94 2.07635 19.9628 2.14322 19.9628C2.22629 19.9628 2.30885 19.9276 2.36674 19.8592L2.51501 19.6843C2.90061 19.2292 3.11297 18.65 3.11297 18.0536V17.1473L3.19843 17.2289C3.25515 17.2831 3.32791 17.31 3.40064 17.31C3.47781 17.31 3.55487 17.2797 3.61237 17.2195C3.72406 17.1026 3.71984 16.9173 3.60293 16.8055L3.02249 16.251Z" fill="#444444"/>
<path d="M14.5815 19.3057C14.2854 18.9562 14.1223 18.5115 14.1223 18.0535V17.1472L14.2078 17.2289C14.2645 17.283 14.3372 17.3099 14.41 17.3099C14.4871 17.3099 14.5642 17.2796 14.6217 17.2194C14.7334 17.1025 14.7292 16.9172 14.6123 16.8055L14.0318 16.2509C13.9187 16.1428 13.7404 16.1428 13.6273 16.2509L13.0468 16.8055C12.9299 16.9171 12.9257 17.1025 13.0374 17.2194C13.1491 17.3363 13.3344 17.3405 13.4513 17.2289L13.5368 17.1472V18.0535C13.5368 18.65 13.7492 19.2291 14.1348 19.6842L14.283 19.8591C14.3409 19.9275 14.4235 19.9626 14.5065 19.9626C14.5734 19.9626 14.6406 19.9399 14.6956 19.8932C14.819 19.7887 14.8343 19.604 14.7298 19.4806L14.5815 19.3057Z" fill="#444444"/>
<path d="M17.9316 19.3057C17.6355 18.9562 17.4724 18.5115 17.4724 18.0535V17.1472L17.5579 17.2289C17.6146 17.283 17.6874 17.3099 17.7601 17.3099C17.8373 17.3099 17.9143 17.2796 17.9718 17.2194C18.0835 17.1025 18.0793 16.9172 17.9624 16.8055L17.3819 16.2509C17.2688 16.1428 17.0906 16.1428 16.9774 16.2509L16.3969 16.8055C16.28 16.9171 16.2758 17.1025 16.3875 17.2194C16.4992 17.3363 16.6845 17.3405 16.8014 17.2289L16.8868 17.1472V18.0535C16.8868 18.65 17.0992 19.2291 17.4848 19.6842L17.6331 19.8591C17.691 19.9275 17.7735 19.9626 17.8566 19.9626C17.9235 19.9626 17.9907 19.9399 18.0457 19.8932C18.1691 19.7887 18.1843 19.604 18.0798 19.4806L17.9316 19.3057Z" fill="#444444"/>
<path d="M6.67632 2.78415C6.83801 2.78415 6.9691 2.65306 6.9691 2.49137V0.330131C6.9691 0.16844 6.83801 0.0373535 6.67632 0.0373535C6.51463 0.0373535 6.38354 0.16844 6.38354 0.330131V2.49137C6.38354 2.65306 6.51463 2.78415 6.67632 2.78415Z" fill="#444444"/>
<path d="M19.2709 12.2569L13.619 5.57471V0.330131C13.619 0.16844 13.4879 0.0373535 13.3262 0.0373535C13.1645 0.0373535 13.0334 0.16844 13.0334 0.330131V5.38916H6.96911V3.73911C6.96911 3.57742 6.83803 3.44633 6.67633 3.44633C6.51464 3.44633 6.38356 3.57742 6.38356 3.73911V5.57471L0.732099 12.2564C0.317175 12.3263 0 12.6879 0 13.1224V14.1027C0 14.5871 0.394078 14.9811 0.878449 14.9811H19.1215C19.6059 14.9811 20 14.5871 20 14.1027V13.1224C20 12.689 19.6843 12.3281 19.2709 12.2569ZM19.4144 14.1027C19.4144 14.2642 19.283 14.3956 19.1215 14.3956H0.878449C0.716953 14.3956 0.585554 14.2642 0.585554 14.1027V13.1224C0.585554 12.9609 0.716953 12.8295 0.878449 12.8295H4.0098C4.17149 12.8295 4.30258 12.6984 4.30258 12.5368C4.30258 12.3751 4.17149 12.244 4.0098 12.244H1.50952L2.29229 11.3185H14.1678C14.3295 11.3185 14.4606 11.1874 14.4606 11.0257C14.4606 10.864 14.3295 10.7329 14.1678 10.7329H2.78759L6.81218 5.97468H13.1904L17.215 10.7329H15.4156C15.2539 10.7329 15.1228 10.864 15.1228 11.0257C15.1228 11.1874 15.2539 11.3185 15.4156 11.3185H17.7102L18.493 12.244H5.2575C5.09581 12.244 4.96472 12.3751 4.96472 12.5368C4.96472 12.6984 5.09581 12.8295 5.2575 12.8295H19.1215C19.283 12.8295 19.4144 12.9609 19.4144 13.1224L19.4144 14.1027Z" fill="#444444"/>
</g>
<defs>
<clipPath id="clip0_2_1679">
<rect width="20" height="20" fill="white"/>
</clipPath>
</defs>
</svg>
