<svg width="20" height="20" viewBox="0 0 20 20" fill="none" xmlns="http://www.w3.org/2000/svg">
<g clip-path="url(#clip0_2_1774)">
<path d="M17.026 0H2.9742C1.85252 0 0.939941 0.912539 0.939941 2.03426V17.3407C0.939941 18.4624 1.85252 19.375 2.9742 19.375H17.026C18.1477 19.375 19.0603 18.4624 19.0603 17.3407V2.03426C19.0603 0.912539 18.1477 0 17.026 0ZM2.9742 0.625H17.026C17.8031 0.625 18.4353 1.25723 18.4353 2.03426V14.8712H1.56494V2.03426C1.56494 1.25723 2.19713 0.625 2.9742 0.625ZM17.026 18.75H2.9742C2.19709 18.75 1.5649 18.1178 1.5649 17.3407V15.4962H18.4352V17.3407C18.4353 18.1178 17.8031 18.75 17.026 18.75ZM10.0001 13.4493C13.0612 13.4493 15.5517 10.9589 15.5517 7.89781C15.5517 4.83668 13.0613 2.34625 10.0001 2.34625C6.93893 2.34625 4.44853 4.83668 4.44853 7.89781C4.44853 10.9589 6.93896 13.4493 10.0001 13.4493ZM10.0001 2.97121C12.7166 2.97121 14.9267 5.18125 14.9267 7.89777C14.9267 10.6143 12.7166 12.8243 10.0001 12.8243C7.28357 12.8243 5.07353 10.6143 5.07353 7.89777C5.07353 5.18129 7.28357 2.97121 10.0001 2.97121ZM9.68791 4.2434C9.68791 4.07082 9.82783 3.9309 10.0004 3.9309C12.1876 3.9309 13.967 5.71031 13.967 7.89746C13.967 8.07004 13.8271 8.20996 13.6545 8.20996C13.4819 8.20996 13.342 8.07004 13.342 7.89746C13.342 6.05492 11.8429 4.5559 10.0004 4.5559C9.82779 4.5559 9.68791 4.41598 9.68791 4.2434ZM13.483 9.79609C12.9758 10.7263 12.1368 11.4034 11.1204 11.7026C10.7495 11.8118 10.371 11.8659 9.99494 11.8659C9.34037 11.8659 8.69252 11.7022 8.10174 11.3801C7.95021 11.2975 7.89432 11.1076 7.97693 10.9561C8.05955 10.8046 8.24928 10.7487 8.40088 10.8313C9.18455 11.2586 10.0877 11.355 10.9439 11.103C11.8002 10.851 12.507 10.2806 12.9342 9.49695C13.0169 9.34543 13.2067 9.28965 13.3582 9.37215C13.5097 9.45477 13.5656 9.64457 13.483 9.79609ZM6.57029 9.88941C6.03822 8.9732 5.89478 7.90461 6.16643 6.88055C6.43807 5.85645 7.09225 4.99945 8.00846 4.46738C8.15764 4.38066 8.34896 4.43141 8.43564 4.58066C8.52232 4.72992 8.47158 4.92117 8.32236 5.00785C6.729 5.93316 6.18553 7.98223 7.1108 9.57559C7.19748 9.72484 7.14674 9.91609 6.99752 10.0028C6.94814 10.0314 6.89416 10.0451 6.84088 10.0451C6.7331 10.045 6.62826 9.9893 6.57029 9.88941ZM11.783 6.15176C11.905 6.27383 11.9051 6.47164 11.783 6.59367C11.661 6.71574 11.4631 6.7157 11.3411 6.59371C10.6016 5.85426 9.39853 5.85426 8.65912 6.59371C8.5981 6.65473 8.51814 6.68523 8.43814 6.68523C8.35814 6.68523 8.27818 6.65473 8.21717 6.59371C8.09514 6.47164 8.09514 6.27383 8.21717 6.15176C9.20025 5.16871 10.7999 5.16871 11.783 6.15176ZM10.324 10.142C10.2753 9.97645 10.37 9.8027 10.5356 9.75394C11.5387 9.45863 12.1146 8.4023 11.8194 7.39922C11.7706 7.23367 11.8653 7.05992 12.0309 7.01117C12.1963 6.96246 12.3702 7.05719 12.4189 7.22273C12.8115 8.55645 12.0458 9.9609 10.7121 10.3535C10.6826 10.3622 10.6529 10.3663 10.6237 10.3663C10.4887 10.3663 10.3641 10.2781 10.324 10.142ZM7.81963 9.20094C7.48142 8.61852 7.39025 7.93926 7.56291 7.28828C7.60717 7.12145 7.7783 7.02199 7.9451 7.06633C8.11193 7.11059 8.21127 7.28168 8.16701 7.44848C8.03713 7.93809 8.10572 8.44898 8.3601 8.88703C8.61447 9.32508 9.0242 9.63785 9.51385 9.76773C9.68068 9.81199 9.78002 9.98309 9.7358 10.1499C9.69869 10.2898 9.57221 10.3823 9.43396 10.3823C9.40744 10.3823 9.38049 10.3789 9.35365 10.3718C8.70264 10.1992 8.15787 9.78336 7.81963 9.20094ZM11.2101 7.89781C11.2101 7.23059 10.6673 6.68773 10.0001 6.68773C9.33287 6.68773 8.79006 7.23055 8.79006 7.89781C8.79006 8.565 9.33287 9.10785 10.0001 9.10785C10.6673 9.10785 11.2101 8.565 11.2101 7.89781ZM10.0001 8.48281C9.67752 8.48281 9.41506 8.22035 9.41506 7.89777C9.41506 7.57516 9.67752 7.3127 10.0001 7.3127C10.3227 7.3127 10.5851 7.57516 10.5851 7.89777C10.5851 8.22035 10.3227 8.48281 10.0001 8.48281ZM3.70373 17.1231C3.70373 17.2957 3.56381 17.4356 3.39123 17.4356H3.08268C2.9101 17.4356 2.77018 17.2957 2.77018 17.1231C2.77018 16.9505 2.9101 16.8106 3.08268 16.8106H3.39123C3.56381 16.8106 3.70373 16.9505 3.70373 17.1231ZM17.34 17.1231C17.34 17.2957 17.2001 17.4356 17.0275 17.4356H16.7189C16.5463 17.4356 16.4064 17.2957 16.4064 17.1231C16.4064 16.9505 16.5463 16.8106 16.7189 16.8106H17.0275C17.2001 16.8106 17.34 16.9505 17.34 17.1231ZM11.9893 16.091H8.03291C7.6949 16.091 7.41994 16.366 7.41994 16.704V17.5421C7.41994 17.8802 7.69494 18.1552 8.03291 18.1552H11.9893C12.3273 18.1552 12.6023 17.8802 12.6023 17.5421V16.704C12.6023 16.366 12.3273 16.091 11.9893 16.091ZM11.9773 17.5302H8.04494V16.716H11.9773V17.5302ZM14.406 15.9549C13.7618 15.9549 13.2378 16.4789 13.2378 17.123C13.2378 17.7671 13.7618 18.2912 14.406 18.2912C15.0501 18.2912 15.5741 17.7671 15.5741 17.123C15.5741 16.4789 15.0501 15.9549 14.406 15.9549ZM14.406 17.6662C14.1065 17.6662 13.8628 17.4226 13.8628 17.1231C13.8628 16.8236 14.1065 16.58 14.406 16.58C14.7054 16.58 14.9491 16.8236 14.9491 17.1231C14.9491 17.4226 14.7054 17.6662 14.406 17.6662ZM5.59381 15.9549C4.94971 15.9549 4.42568 16.4789 4.42568 17.123C4.42568 17.7671 4.94971 18.2912 5.59381 18.2912C6.23795 18.2912 6.76197 17.7671 6.76197 17.123C6.76197 16.4789 6.23795 15.9549 5.59381 15.9549ZM5.59381 17.6662C5.29432 17.6662 5.05068 17.4226 5.05068 17.1231C5.05068 16.8236 5.29432 16.58 5.59381 16.58C5.8933 16.58 6.13697 16.8236 6.13697 17.1231C6.13697 17.4226 5.8933 17.6662 5.59381 17.6662Z" fill="#444444"/>
</g>
<defs>
<clipPath id="clip0_2_1774">
<rect width="20" height="20" fill="white"/>
</clipPath>
</defs>
</svg>
