<svg width="10" height="10" viewBox="0 0 10 10" fill="none" xmlns="http://www.w3.org/2000/svg">
<g clip-path="url(#clip0_34_21)">
<path d="M5 0C2.24305 0 0 2.24305 0 5C0 7.75695 2.24305 10 5 10C7.75695 10 10 7.75695 10 5C10 2.24305 7.75695 0 5 0ZM8.9514 6.64984C8.45988 7.82284 7.4606 8.73233 6.22972 9.10195C6.25179 9.06098 6.27316 9.01956 6.29384 8.97767C6.39958 8.76367 6.5107 8.61279 6.69719 8.4623C6.83991 8.34705 7.12012 8.16853 7.0743 7.94344C7.04126 7.78077 6.85553 7.71402 6.71519 7.67426C6.49251 7.61116 6.2543 7.59481 6.02451 7.57891C5.82551 7.565 5.61886 7.57209 5.42458 7.52253C5.13384 7.44853 5.0683 7.19686 5.04991 6.93156C5.03351 6.69572 5.03702 6.45326 4.92105 6.23984C4.7717 5.96516 4.42798 5.88705 4.14295 5.86084C3.90235 5.83881 3.66205 5.85042 3.42274 5.81033C3.19251 5.77177 2.97447 5.69091 2.73805 5.70007C2.43165 5.71188 2.29405 5.91956 2.16335 6.15972C2.09884 6.27833 1.69135 7.19044 1.45193 7.39495C1.03909 6.78549 0.779395 6.06437 0.727674 5.28723C0.761512 5.27812 0.795047 5.26549 0.829093 5.24853C0.962302 5.1824 1.05563 5.063 1.20058 5.01572C1.33879 4.9707 1.51735 5.01063 1.65856 5.02447C1.79907 5.03821 1.94177 5.05277 2.0824 5.03363C2.36312 4.99528 2.51186 4.80137 2.5567 4.53067C2.58335 4.36898 2.56256 4.20637 2.56737 4.04356C2.57498 3.78986 2.74147 3.69884 2.97088 3.67726C3.40423 3.63656 4.41509 3.7514 4.43556 3.08447C4.44428 2.79919 4.10474 2.65195 3.8836 2.57581C3.453 2.42767 2.98251 2.4794 2.54209 2.37649C2.30784 2.32174 2.11026 2.17563 1.94458 2.00293C2.72235 1.2104 3.8046 0.717767 5 0.717767C5.25567 0.717767 5.50593 0.740326 5.74928 0.783535C5.62486 0.806651 5.50205 0.839488 5.38256 0.887744C4.75216 1.14191 4.73319 1.85709 5.00872 2.39437C5.1796 2.72758 5.45635 3.00674 5.74542 3.23888C6.02526 3.46351 6.33102 3.59626 6.6413 3.76665C7.05295 3.993 7.00326 4.58412 7.1074 4.9824C7.19523 5.31828 7.40616 5.60163 7.73863 5.71791C7.93963 5.78814 8.17572 5.73333 8.35172 5.87337C8.50288 5.9933 8.53839 6.23881 8.62479 6.40381C8.71084 6.56844 8.82537 6.63774 8.9514 6.64984Z" fill="white"/>
</g>
<defs>
<clipPath id="clip0_34_21">
<rect width="10" height="10" fill="white"/>
</clipPath>
</defs>
</svg>
