<svg width="34" height="34" viewBox="0 0 34 34" fill="none" xmlns="http://www.w3.org/2000/svg">
<path d="M24.1719 2.125C22.8272 2.12656 21.4971 2.4036 20.2636 2.93902C19.0301 3.47445 17.9194 4.2569 17 5.23812C15.6526 3.80009 13.904 2.80031 11.9812 2.36859C10.0585 1.93687 8.05032 2.09313 6.21748 2.8171C4.38465 3.54108 2.81177 4.79931 1.70305 6.42848C0.59433 8.05764 0.000970222 9.98248 0 11.9531C0 21.7388 15.7834 31.3438 16.4688 31.7209C16.634 31.8202 16.8232 31.8727 17.0159 31.8727C17.2087 31.8727 17.3979 31.8202 17.5631 31.7209C18.2166 31.3438 34 21.7388 34 11.9531C33.9972 9.34741 32.9608 6.84922 31.1183 5.0067C29.2758 3.16418 26.7776 2.12781 24.1719 2.125ZM17 29.5588C14.2534 27.8056 2.125 19.6138 2.125 11.9531C2.12636 10.3168 2.64873 8.72351 3.6164 7.40403C4.58408 6.08455 5.94677 5.10749 7.507 4.61444C9.06723 4.12139 10.7439 4.13798 12.2941 4.6618C13.8443 5.18561 15.1874 6.18945 16.1287 7.52781C16.2268 7.66703 16.3569 7.78063 16.5081 7.85904C16.6593 7.93746 16.8271 7.97839 16.9973 7.97839C17.1676 7.97839 17.3354 7.93746 17.4866 7.85904C17.6378 7.78063 17.7679 7.66703 17.8659 7.52781C18.8065 6.18715 20.1499 5.18115 21.7011 4.65585C23.2523 4.13056 24.9305 4.11332 26.4922 4.60663C28.0538 5.09994 29.4176 6.07812 30.3856 7.39918C31.3535 8.72024 31.8752 10.3154 31.875 11.9531C31.875 19.6084 19.7466 27.8003 17 29.5588Z" fill="#444444"/>
</svg>
