<svg width="504" height="71" viewBox="0 0 504 71" fill="none" xmlns="http://www.w3.org/2000/svg">
<g clip-path="url(#clip0_34_92)">
<path d="M77.9594 55.3573C77.8126 55.2269 77.696 55.0666 77.6176 54.8874C77.5392 54.7082 77.5008 54.5143 77.5052 54.3191L77.646 53.6861L94.4994 9.05587C94.8256 7.89949 95.6423 7.32236 96.9495 7.32447H104.572C105.785 7.32447 106.601 7.9016 107.019 9.05587L123.875 53.6861C123.93 53.8925 123.954 54.1058 123.946 54.3191C123.951 54.5112 123.916 54.7023 123.844 54.8808C123.772 55.0593 123.664 55.2214 123.527 55.3573C123.4 55.4884 123.248 55.5927 123.08 55.6639C122.912 55.7352 122.731 55.772 122.548 55.772H116.448C115.947 55.804 115.451 55.6568 115.05 55.3573C114.752 55.1267 114.53 54.8139 114.411 54.4584L111.145 46.0135H90.3732L87.0882 54.4584C86.938 54.8648 86.6591 55.2122 86.2931 55.449C85.9271 55.6857 85.4935 55.799 85.0571 55.772H78.9798C78.5981 55.7706 78.232 55.6218 77.9594 55.3573ZM108.698 38.056L100.724 16.6683L92.8233 38.056H108.698Z" fill="#444444"/>
<path d="M135.976 54.9078C133.596 53.8696 131.836 52.6468 130.695 51.2393C129.554 49.8318 128.982 48.6174 128.98 47.5961C128.972 47.3868 129.012 47.1785 129.097 46.9866C129.181 46.7947 129.309 46.6243 129.47 46.4882C129.779 46.2188 130.177 46.0712 130.589 46.0736H136.116C136.317 46.0707 136.515 46.1127 136.697 46.1966C136.879 46.2805 137.039 46.404 137.166 46.5579C137.351 46.6971 137.84 47.1128 138.634 47.805C139.444 48.5544 140.393 49.1413 141.429 49.5332C142.569 49.9635 143.779 50.1783 144.999 50.1663C146.86 50.1663 148.399 49.797 149.614 49.0584C150.83 48.3199 151.436 47.3049 151.431 46.0134C151.47 45.1577 151.184 44.3186 150.628 43.6617C150.091 43.0603 149.123 42.5179 147.724 42.0347C145.684 41.3866 143.605 40.8665 141.5 40.4774C137.538 39.646 134.612 38.3799 132.723 36.6791C130.833 34.9783 129.887 32.7141 129.882 29.8864C129.891 28.0159 130.477 26.1925 131.562 24.6606C132.681 23.0231 134.349 21.6852 136.564 20.647C138.78 19.6088 141.426 19.0897 144.503 19.0897C147.625 19.0897 150.329 19.5856 152.615 20.5774C154.901 21.5692 156.638 22.7456 157.825 24.1067C159.028 25.4719 159.629 26.6832 159.629 27.7404C159.624 28.1429 159.461 28.5277 159.173 28.8126C158.886 29.0976 158.498 29.2603 158.091 29.266H152.912C152.473 29.2386 152.055 29.0671 151.726 28.7786C151.187 28.3713 150.673 27.9327 150.187 27.465C149.473 26.8111 148.642 26.2948 147.737 25.9425C146.688 25.5522 145.573 25.3642 144.452 25.3886C142.725 25.3886 141.383 25.7579 140.428 26.4964C139.971 26.8315 139.602 27.2704 139.353 27.7761C139.104 28.2819 138.981 28.8396 138.995 29.4021C138.961 30.1774 139.21 30.939 139.696 31.5482C140.158 32.1032 141.068 32.6307 142.424 33.1308C143.78 33.6309 145.806 34.1384 148.501 34.6533C152.979 35.529 156.184 36.8901 158.116 38.7365C159.054 39.6028 159.796 40.6542 160.297 41.8227C160.797 42.9913 161.044 44.2508 161.021 45.5197C161.021 48.7482 159.598 51.3786 156.754 53.4107C153.909 55.4428 149.92 56.4588 144.788 56.4588C141.293 56.4588 138.355 55.9418 135.976 54.9078Z" fill="#444444"/>
<path d="M170.185 68.4868C170.021 68.3308 169.892 68.142 169.808 67.9329C169.723 67.7239 169.685 67.4994 169.695 67.2745V21.4447C169.685 21.2198 169.723 20.9953 169.808 20.7863C169.892 20.5772 170.021 20.3884 170.185 20.2324C170.506 19.9338 170.934 19.7723 171.374 19.7829H176.902C177.126 19.7664 177.352 19.798 177.564 19.8757C177.775 19.9533 177.967 20.0752 178.126 20.2329C178.286 20.3907 178.409 20.5806 178.487 20.7897C178.566 20.9988 178.598 21.2222 178.581 21.4447V24.2111C181.191 20.799 184.923 19.0918 189.776 19.0897C194.484 19.0897 198.098 20.5552 200.616 23.4863C203.134 26.4173 204.486 30.3739 204.672 35.356C204.71 35.9194 204.729 36.7287 204.729 37.7838C204.729 38.8916 204.706 39.722 204.659 40.2748C204.474 45.1282 203.122 49.0394 200.603 52.0084C198.085 54.9775 194.471 56.4609 189.76 56.4588C185.047 56.4588 181.456 54.8203 178.987 51.5432V67.2555C179.004 67.4778 178.973 67.7012 178.895 67.9103C178.817 68.1194 178.694 68.3094 178.535 68.4672C178.376 68.625 178.184 68.7469 177.973 68.8246C177.761 68.9023 177.536 68.9339 177.311 68.9173H171.365C170.93 68.9289 170.508 68.7748 170.185 68.4868ZM195.223 39.8665C195.271 39.4044 195.294 38.7143 195.294 37.7901C195.294 36.8658 195.271 36.1758 195.223 35.7137C194.897 29.5773 192.217 26.5091 187.182 26.5091C184.476 26.5091 182.47 27.3627 181.165 29.0698C179.86 30.7769 179.137 32.8766 178.997 35.3687L178.926 37.999L178.997 40.6958C179.035 42.8584 179.812 44.9444 181.201 46.6148C182.576 48.2502 184.57 49.069 187.182 49.0711C192.21 49.0626 194.887 45.9902 195.214 39.8538L195.223 39.8665Z" fill="#444444"/>
<path d="M222.664 20.2324C222.502 20.0787 222.31 19.9593 222.1 19.8815C221.89 19.8037 221.666 19.769 221.442 19.7797H215.637C215.415 19.778 215.196 19.82 214.991 19.903C214.786 19.9861 214.6 20.1087 214.443 20.2636C214.287 20.4186 214.163 20.6028 214.079 20.8055C213.995 21.0083 213.953 21.2255 213.954 21.4447V54.1102C213.952 54.3289 213.994 54.5458 214.078 54.748C214.162 54.9503 214.287 55.1338 214.444 55.2876C214.598 55.445 214.784 55.5691 214.989 55.6524C215.195 55.7358 215.415 55.7764 215.637 55.7719H221.442C221.669 55.7831 221.896 55.7456 222.107 55.662C222.318 55.5784 222.508 55.4507 222.664 55.2876C222.967 54.9701 223.132 54.547 223.121 54.1102V21.4447C223.133 21.2224 223.098 21.0002 223.019 20.7918C222.941 20.5833 222.82 20.3929 222.664 20.2324Z" fill="#444444"/>
<path d="M223.467 7.18514V12.1673C223.471 12.3867 223.43 12.6048 223.346 12.8079C223.262 13.011 223.137 13.1948 222.978 13.3479C222.813 13.5095 222.617 13.6359 222.402 13.7193C222.186 13.8026 221.955 13.841 221.724 13.8322H215.352C215.132 13.8365 214.913 13.7957 214.709 13.7124C214.506 13.6291 214.321 13.505 214.169 13.3479C214.011 13.1938 213.887 13.0097 213.804 12.8067C213.721 12.6038 213.681 12.3862 213.686 12.1673V7.18514C213.684 6.9671 213.727 6.75096 213.81 6.5492C213.894 6.34743 214.017 6.16402 214.172 6.00955C214.328 5.85507 214.513 5.73258 214.716 5.64914C214.92 5.5657 215.138 5.52296 215.358 5.52338H221.73C222.189 5.51947 222.631 5.69328 222.962 6.00767C223.126 6.15695 223.256 6.33924 223.343 6.54232C223.43 6.7454 223.472 6.96457 223.467 7.18514Z" fill="#D10037"/>
<path d="M234.31 55.2877C234.152 55.1349 234.026 54.9516 233.942 54.7491C233.858 54.5466 233.817 54.3291 233.821 54.1102V21.5143C233.816 21.0623 233.992 20.6267 234.31 20.302C234.459 20.1358 234.642 20.0033 234.848 19.9137C235.053 19.8241 235.276 19.7795 235.5 19.7829H241.165C241.397 19.7726 241.629 19.8103 241.846 19.8936C242.063 19.977 242.261 20.1042 242.425 20.267C242.59 20.4299 242.718 20.625 242.803 20.8397C242.887 21.0544 242.925 21.2842 242.914 21.5143V24.3631C244.016 22.9008 245.471 21.7352 247.146 20.9731C248.981 20.1605 250.974 19.7584 252.984 19.7956H255.862C256.087 19.779 256.313 19.8107 256.524 19.8883C256.736 19.966 256.927 20.0878 257.087 20.2456C257.246 20.4033 257.369 20.5932 257.448 20.8024C257.526 21.0115 257.558 21.2349 257.542 21.4573V26.4268C257.551 26.8628 257.388 27.2851 257.087 27.6043C256.93 27.7666 256.739 27.8937 256.528 27.9772C256.316 28.0608 256.09 28.0987 255.862 28.0886H250.396C248.204 28.0886 246.479 28.7111 245.221 29.9561C243.962 31.2011 243.333 32.9082 243.333 35.0775V54.1102C243.338 54.3291 243.296 54.5466 243.212 54.7491C243.128 54.9516 243.003 55.1349 242.844 55.2877C242.678 55.4492 242.481 55.5754 242.264 55.6587C242.048 55.742 241.816 55.7805 241.584 55.772H235.506C235.284 55.7769 235.063 55.7364 234.857 55.6531C234.651 55.5698 234.465 55.4454 234.31 55.2877Z" fill="#444444"/>
<path d="M267.848 55.047C265.975 54.1906 264.36 52.8663 263.162 51.2044C262.038 49.6501 261.438 47.785 261.447 45.8741C261.447 42.7363 262.727 40.2041 265.285 38.2775C267.844 36.3509 271.363 35.0362 275.841 34.3336L285.437 32.9472V31.4943C285.437 29.4664 284.924 27.9439 283.898 26.9268C282.872 25.9097 281.219 25.397 278.937 25.3885C277.399 25.3885 276.148 25.6766 275.195 26.2526C274.373 26.7293 273.61 27.2987 272.92 27.9492C272.362 28.5506 271.989 28.9431 271.801 29.1267C271.751 29.3642 271.619 29.577 271.427 29.7284C271.236 29.8799 270.997 29.9603 270.752 29.956H265.365C264.965 29.9665 264.576 29.8223 264.281 29.554C264.129 29.4127 264.01 29.2405 263.931 29.0493C263.853 28.8581 263.817 28.6523 263.827 28.4462C263.878 27.2856 264.448 25.9667 265.538 24.4896C266.628 23.0125 268.322 21.7464 270.621 20.6913C272.904 19.6362 275.702 19.1086 279.014 19.1086C284.515 19.1086 288.525 20.3315 291.044 22.7772C293.562 25.2229 294.82 28.4293 294.818 32.3964V54.1291C294.829 54.5654 294.666 54.9883 294.364 55.3066C294.207 55.4685 294.016 55.5954 293.806 55.6789C293.595 55.7624 293.369 55.8006 293.142 55.7909H287.465C287.244 55.7917 287.025 55.7493 286.821 55.666C286.617 55.5828 286.432 55.4603 286.276 55.3058C286.12 55.1513 285.997 54.9678 285.913 54.7658C285.83 54.5638 285.787 54.3474 285.788 54.1291V51.4323C284.664 52.9894 283.16 54.2395 281.416 55.066C279.529 56.0093 277.183 56.4819 274.379 56.4841C272.12 56.5018 269.886 56.0104 267.848 55.047ZM283.06 47.3966C284.691 45.738 285.507 43.3113 285.507 40.1165V38.6636L278.515 39.7715C275.809 40.1935 273.768 40.8624 272.393 41.7782C271.017 42.6941 270.33 43.8251 270.33 45.1714C270.308 45.8636 270.471 46.5492 270.803 47.1589C271.135 47.7686 271.624 48.2808 272.22 48.6437C273.574 49.5022 275.158 49.9368 276.765 49.8908C279.328 49.8908 281.427 49.0594 283.06 47.3966Z" fill="#444444"/>
<path d="M311.7 52.4864C309.579 50.2939 308.518 47.0748 308.518 42.8292V27.12H302.994C302.769 27.1225 302.547 27.0776 302.342 26.988C302.137 26.8985 301.953 26.7665 301.804 26.6009C301.491 26.2738 301.32 25.8387 301.327 25.3886V21.4447C301.326 21.2261 301.369 21.0094 301.452 20.8072C301.536 20.6051 301.66 20.4214 301.816 20.2668C301.972 20.1122 302.158 19.9899 302.362 19.9068C302.567 19.8238 302.786 19.7816 303.007 19.7829H308.53V8.29299C308.518 8.06927 308.554 7.84552 308.636 7.63654C308.717 7.42755 308.843 7.23809 309.004 7.08069C309.326 6.78353 309.753 6.62231 310.194 6.63123H315.858C316.083 6.61468 316.309 6.64631 316.52 6.72397C316.732 6.80163 316.924 6.92349 317.083 7.08122C317.242 7.23896 317.366 7.42887 317.444 7.63799C317.522 7.84712 317.554 8.07053 317.538 8.29299V19.7829H326.276C326.501 19.7663 326.727 19.798 326.938 19.8756C327.15 19.9533 327.341 20.0752 327.501 20.2329C327.66 20.3906 327.783 20.5805 327.862 20.7897C327.94 20.9988 327.972 21.2222 327.956 21.4447V25.3886C327.964 25.6185 327.925 25.8477 327.841 26.0622C327.757 26.2767 327.629 26.4718 327.466 26.6357C327.312 26.7926 327.127 26.9166 326.922 26.9999C326.717 27.0832 326.498 27.124 326.276 27.12H317.541V42.1391C317.541 44.1206 317.891 45.6199 318.59 46.637C319.289 47.6541 320.455 48.1616 322.086 48.1595H326.916C327.137 48.1582 327.356 48.2003 327.56 48.2834C327.764 48.3665 327.95 48.4888 328.106 48.6434C328.262 48.7979 328.386 48.9816 328.47 49.1838C328.554 49.386 328.597 49.6027 328.595 49.8212V54.1102C328.604 54.5462 328.441 54.9685 328.141 55.2876C327.983 55.4499 327.793 55.5771 327.581 55.6606C327.37 55.7441 327.143 55.7821 326.916 55.7719H321.251C317.006 55.7719 313.822 54.6767 311.7 52.4864Z" fill="#444444"/>
<path d="M339.64 52.2775C336.655 49.4857 335.047 45.6674 334.817 40.8224L334.746 37.7774L334.817 34.7324C335.051 29.9339 336.682 26.1272 339.71 23.3122C342.738 20.4972 346.935 19.0897 352.3 19.0897C357.661 19.0897 361.857 20.4972 364.89 23.3122C367.922 26.1272 369.551 29.9339 369.777 34.7324C369.822 35.2874 369.844 36.3024 369.844 37.7774C369.844 39.2556 369.822 40.2685 369.777 40.8224C369.543 45.6758 367.934 49.4942 364.951 52.2775C361.967 55.0608 357.75 56.4546 352.3 56.4588C346.845 56.4588 342.625 55.065 339.64 52.2775ZM358.035 47.2954C359.389 45.7465 360.136 43.4738 360.274 40.4774C360.319 40.0153 360.345 39.1163 360.345 37.7774C360.345 36.4385 360.319 35.5396 360.274 35.0775C360.133 32.081 359.387 29.8084 358.035 28.2595C356.683 26.7106 354.772 25.9383 352.3 25.9425C349.829 25.9425 347.917 26.7148 346.565 28.2595C345.213 29.8041 344.467 32.0768 344.326 35.0775L344.256 37.7774L344.326 40.4774C344.462 43.4781 345.209 45.7507 346.565 47.2954C347.921 48.84 349.833 49.6123 352.3 49.6123C354.782 49.6123 356.694 48.84 358.035 47.2954Z" fill="#444444"/>
<path d="M379.507 55.2877C379.349 55.1349 379.224 54.9516 379.139 54.7491C379.055 54.5466 379.014 54.3291 379.018 54.1102V21.5143C379.014 21.0623 379.19 20.6267 379.507 20.302C379.656 20.1358 379.84 20.0033 380.045 19.9137C380.25 19.8241 380.473 19.7795 380.697 19.7829H386.362C386.595 19.7726 386.827 19.8103 387.044 19.8936C387.261 19.977 387.458 20.1042 387.622 20.267C387.787 20.4299 387.916 20.625 388 20.8397C388.084 21.0544 388.122 21.2842 388.112 21.5143V24.3631C389.212 22.9009 390.666 21.7353 392.34 20.9731C394.176 20.1604 396.17 19.7584 398.181 19.7956H401.06C401.284 19.7796 401.51 19.8116 401.721 19.8894C401.932 19.9673 402.124 20.0891 402.283 20.2468C402.442 20.4044 402.565 20.5941 402.644 20.803C402.723 21.0118 402.755 21.235 402.739 21.4573V26.4268C402.748 26.8635 402.584 27.2864 402.281 27.6043C402.124 27.7662 401.934 27.8931 401.723 27.9766C401.512 28.0601 401.286 28.0983 401.06 28.0886H395.603C393.411 28.0886 391.686 28.7111 390.427 29.9561C389.169 31.2011 388.54 32.9082 388.54 35.0775V54.1102C388.544 54.3291 388.503 54.5466 388.419 54.7491C388.335 54.9516 388.209 55.1349 388.051 55.2877C387.885 55.4487 387.688 55.5747 387.471 55.6579C387.254 55.7412 387.023 55.78 386.791 55.772H380.713C380.489 55.7782 380.267 55.7384 380.059 55.655C379.851 55.5717 379.664 55.4466 379.507 55.2877Z" fill="#444444"/>
<path d="M405.877 55.2877C405.717 55.1356 405.591 54.9525 405.507 54.7498C405.423 54.5471 405.382 54.3293 405.387 54.1102V47.2606C405.381 46.8082 405.558 46.3722 405.877 46.0483C406.025 45.8829 406.208 45.751 406.413 45.6615C406.618 45.5719 406.839 45.5268 407.063 45.5292H414.059C414.283 45.5266 414.505 45.5716 414.71 45.6611C414.916 45.7507 415.099 45.8827 415.249 46.0483C415.565 46.3737 415.741 46.8087 415.738 47.2606V54.1102C415.739 54.3288 415.697 54.5454 415.613 54.7476C415.529 54.9498 415.405 55.1335 415.249 55.288C415.093 55.4426 414.907 55.565 414.703 55.648C414.498 55.7311 414.279 55.7732 414.059 55.7719H407.063C406.843 55.7756 406.623 55.7345 406.419 55.6512C406.215 55.5679 406.031 55.4442 405.877 55.2877Z" fill="#D10037"/>
<path d="M434.901 51.5495V54.1102C434.91 54.5462 434.747 54.9685 434.447 55.2876C434.289 55.4499 434.098 55.5771 433.887 55.6606C433.675 55.7441 433.449 55.7821 433.221 55.7719H427.697C427.477 55.7732 427.258 55.7311 427.053 55.648C426.849 55.5649 426.663 55.4426 426.507 55.288C426.351 55.1335 426.227 54.9498 426.143 54.7476C426.059 54.5454 426.017 54.3287 426.018 54.1102V8.29299C426.008 8.0681 426.046 7.84364 426.131 7.63458C426.215 7.42553 426.344 7.2367 426.508 7.08069C426.83 6.78353 427.257 6.62231 427.697 6.63123H433.64C433.865 6.61468 434.091 6.64631 434.302 6.72397C434.514 6.80163 434.706 6.92349 434.865 7.08122C435.024 7.23896 435.147 7.42887 435.226 7.63799C435.304 7.84712 435.336 8.07053 435.32 8.29299V23.6572C437.977 20.6122 441.568 19.0897 446.093 19.0897C450.801 19.0897 454.414 20.6122 456.933 23.6572C459.451 26.7022 460.803 30.6471 460.988 35.4921C461.033 36.046 461.059 36.7867 461.059 37.7078C461.059 38.6289 461.033 39.4392 460.988 39.9931C460.803 44.9752 459.451 48.9666 456.933 51.9673C454.414 54.968 450.801 56.4651 446.093 56.4588C441.288 56.4588 437.558 54.8224 434.901 51.5495ZM451.533 39.838C451.578 39.3759 451.604 38.6858 451.604 37.7616C451.604 36.8373 451.578 36.1473 451.533 35.6852C451.207 29.5488 448.526 26.4806 443.489 26.4806C440.879 26.4806 438.886 27.2993 437.511 28.9368C436.123 30.6075 435.346 32.6934 435.307 34.8559L435.237 37.4862L435.307 40.183C435.448 42.6751 436.171 44.7747 437.476 46.4819C438.781 48.189 440.785 49.0426 443.489 49.0426C448.536 49.0531 451.222 45.9902 451.546 39.8538L451.533 39.838Z" fill="#D10037"/>
<path d="M476.585 68.9584C474.026 67.5973 472.207 66.04 471.128 64.2865C470.049 62.5329 469.516 61.0336 469.529 59.7886C469.531 59.5776 469.579 59.3695 469.67 59.1783C469.76 58.9872 469.891 58.8175 470.053 58.6808C470.359 58.3756 470.774 58.2006 471.208 58.1933H477.285C477.671 58.184 478.051 58.2947 478.37 58.5098C478.732 58.8029 478.99 59.2035 479.105 59.6525C479.564 60.8854 480.349 61.9733 481.38 62.8019C482.429 63.646 484.072 64.068 486.309 64.068C489.108 64.068 491.172 63.4455 492.498 62.2005C493.824 60.9555 494.49 58.8095 494.494 55.7624V51.0778C491.935 54.0785 488.344 55.5788 483.721 55.5788C478.872 55.5788 475.223 54.1017 472.775 51.1474C470.327 48.1932 469.011 44.225 468.825 39.2429L468.755 37.3754L468.825 35.5047C469.011 30.6154 470.339 26.6589 472.811 23.635C475.282 20.6111 478.919 19.1002 483.721 19.1023C485.969 19.0542 488.197 19.5279 490.227 20.4856C492.06 21.3828 493.663 22.6818 494.913 24.2839V21.5143C494.904 21.2844 494.943 21.0551 495.027 20.8407C495.111 20.6262 495.239 20.431 495.402 20.2672C495.556 20.1106 495.741 19.9869 495.945 19.9036C496.149 19.8203 496.368 19.7792 496.589 19.7829H502.257C502.481 19.7799 502.703 19.8248 502.907 19.9143C503.112 20.0039 503.295 20.1361 503.443 20.302C503.761 20.6266 503.937 21.0622 503.933 21.5143L504.003 54.873C504.003 59.9944 502.559 63.9625 499.669 66.7775C496.78 69.5925 492.444 71 486.66 71C482.507 71 479.148 70.3194 476.585 68.9584ZM492.284 45.738C493.612 44.0773 494.347 42.0463 494.487 39.6449C494.532 39.2777 494.558 38.5149 494.558 37.3627C494.558 36.2106 494.532 35.5174 494.487 35.147C494.347 32.7035 493.612 30.6503 492.284 28.9874C490.955 27.3246 488.961 26.4943 486.302 26.4964C481.268 26.4964 478.611 29.5646 478.331 35.701L478.261 37.3627C478.261 40.6398 478.855 43.2702 480.043 45.2537C481.23 47.2373 483.317 48.2291 486.302 48.2291C488.963 48.2291 490.957 47.3987 492.284 45.738Z" fill="#D10037"/>
<path d="M60.0985 1.21736e-10H3.00988C2.21382 -7.11705e-06 1.45018 0.312061 0.886086 0.867905C0.32199 1.42375 0.00338558 2.1781 1.69973e-06 2.96585V59.4721C-0.000418632 59.8635 0.0771241 60.2512 0.228197 60.6129C0.379269 60.9746 0.600909 61.3034 0.880444 61.5803C1.15998 61.8572 1.49193 62.0769 1.85731 62.2268C2.2227 62.3766 2.61435 62.4538 3.00988 62.4538H60.0985C60.494 62.4538 60.8857 62.3766 61.2511 62.2268C61.6164 62.0769 61.9484 61.8572 62.2279 61.5803C62.5075 61.3034 62.7291 60.9746 62.8802 60.6129C63.0312 60.2512 63.1088 59.8635 63.1084 59.4721V2.96585C63.105 2.1781 62.7864 1.42375 62.2223 0.867905C61.6582 0.312061 60.8945 -7.11705e-06 60.0985 1.21736e-10ZM11.7996 44.2345L17.4867 34.1817C19.4571 37.5558 21.3762 40.8509 23.353 44.2345H11.7996ZM29.6382 52.1825C29.8301 51.7995 29.9933 51.483 30.15 51.1665C31.052 49.3306 31.6341 47.4125 30.8761 45.4183C30.4382 44.3 29.8415 43.2491 29.1041 42.2974C27.4664 40.1672 25.6496 38.1826 24.0151 36.0397C21.6417 32.9377 19.7929 29.5541 18.9293 25.7178C17.8034 20.6913 18.9869 16.3233 22.6845 12.6579C22.7676 12.5756 22.8572 12.4996 23.0715 12.3034C23.0171 12.8573 22.9787 13.253 22.934 13.6708C22.3486 19.1783 23.8935 24.1161 27.0538 28.6013C28.4931 30.6556 30.054 32.6275 31.4678 34.7008C33.2111 37.2583 34.6248 39.9868 35.1814 43.0697C35.9491 47.327 34.0683 50.5809 29.6414 52.1825H29.6382ZM45.8871 44.2694C44.5757 44.2694 43.2611 44.2694 41.9464 44.2694C41.7924 44.2882 41.6363 44.2587 41.5002 44.1848C41.3642 44.1109 41.255 43.9966 41.1884 43.8579C36.4011 35.6409 31.6107 27.4249 26.8171 19.21C26.7589 19.1078 26.7236 18.9944 26.7137 18.8775C26.7037 18.7606 26.7194 18.643 26.7595 18.5326C28.3012 15.801 29.8717 13.0884 31.4902 10.2713C38.0985 21.6092 44.6684 32.8807 51.3055 44.263L45.8871 44.2694Z" fill="#D10037"/>
</g>
<defs>
<clipPath id="clip0_34_92">
<rect width="504" height="71" fill="white"/>
</clipPath>
</defs>
</svg>
