<?xml version="1.0" encoding="utf-8"?>
<!-- Generator: Adobe Illustrator 25.2.1, SVG Export Plug-In . SVG Version: 6.00 Build 0)  -->
<svg version="1.1" id="Layer_1" xmlns="http://www.w3.org/2000/svg" xmlns:xlink="http://www.w3.org/1999/xlink" x="0px" y="0px"
	 viewBox="0 0 30 30" style="enable-background:new 0 0 30 30;" xml:space="preserve">
<style type="text/css">
	.st0{fill-rule:evenodd;clip-rule:evenodd;fill:#4B4B4B;}
</style>
<path class="st0" d="M3.8,7.5c0-0.7,0.6-1.2,1.2-1.2h20c0.7,0,1.2,0.6,1.2,1.2S25.7,8.8,25,8.8H5C4.3,8.8,3.8,8.2,3.8,7.5z M3.8,15
	c0-0.7,0.6-1.2,1.2-1.2h12.5c0.7,0,1.2,0.6,1.2,1.2s-0.6,1.2-1.2,1.2H5C4.3,16.2,3.8,15.7,3.8,15z M3.8,22.5c0-0.7,0.6-1.2,1.2-1.2
	h6.2c0.7,0,1.2,0.6,1.2,1.2s-0.6,1.2-1.2,1.2H5C4.3,23.8,3.8,23.2,3.8,22.5z"/>
</svg>
