<svg width="10" height="10" viewBox="0 0 10 10" fill="none" xmlns="http://www.w3.org/2000/svg">
<g clip-path="url(#clip0_72_12)">
<path d="M9.71465 7.06647L7.52715 6.12897C7.4337 6.08915 7.32984 6.08076 7.23121 6.10506C7.13258 6.12937 7.04452 6.18505 6.98027 6.26374L6.01152 7.44733C4.49116 6.7305 3.26762 5.50695 2.55078 3.98659L3.73438 3.01784C3.81322 2.95372 3.86902 2.86565 3.89334 2.76697C3.91766 2.66829 3.90916 2.56438 3.86914 2.47097L2.93164 0.283465C2.88772 0.182764 2.81003 0.100545 2.71198 0.0509848C2.61393 0.00142483 2.50166 -0.0123692 2.39453 0.0119811L0.363281 0.480731C0.259994 0.504582 0.167841 0.562739 0.101862 0.645708C0.0358838 0.728678 -2.37932e-05 0.831562 1.18285e-08 0.937567C1.18285e-08 5.94733 4.06055 10.0001 9.0625 10.0001C9.16854 10.0001 9.27147 9.96425 9.35448 9.89827C9.43749 9.83228 9.49567 9.74011 9.51953 9.63679L9.98828 7.60554C10.0125 7.49788 9.99839 7.38516 9.94845 7.28678C9.8985 7.18839 9.81583 7.11049 9.71465 7.06647Z" fill="white"/>
</g>
<defs>
<clipPath id="clip0_72_12">
<rect width="10" height="10" fill="white"/>
</clipPath>
</defs>
</svg>
