<svg width="20" height="20" viewBox="0 0 20 20" fill="none" xmlns="http://www.w3.org/2000/svg">
<g clip-path="url(#clip0_2_1743)">
<path d="M18.8119 7.98336H15.3321V6.89016H16.3477C16.5098 6.89016 16.6413 6.75871 16.6413 6.5966C16.6413 6.43449 16.5098 6.30305 16.3477 6.30305H13.7293C13.5672 6.30305 13.4358 6.43449 13.4358 6.5966C13.4358 6.75871 13.5672 6.89016 13.7293 6.89016H14.745V7.98336H11.1753V5.52207C11.1753 5.35996 11.0439 5.22852 10.8818 5.22852C10.7196 5.22852 10.5882 5.35996 10.5882 5.52207V7.98336H9.87516V2.55508C9.87516 1.86277 9.31172 1.29953 8.61918 1.29953C7.92664 1.29953 7.36316 1.86277 7.36316 2.55516L7.36352 3.70297H6.65016V2.55508C6.65016 1.46992 7.53348 0.58707 8.61918 0.58707C9.70488 0.58707 10.5882 1.46992 10.5882 2.55508V4.34789C10.5882 4.51 10.7196 4.64145 10.8818 4.64145C11.0439 4.64145 11.1753 4.51004 11.1753 4.34789V2.55508C11.1753 1.14621 10.0287 0 8.61922 0C7.20977 0 6.06313 1.14621 6.06313 2.55508V3.70297H5.90289C5.74078 3.70297 5.60934 3.83437 5.60934 3.99652C5.60934 4.15867 5.74078 4.29008 5.90289 4.29008H7.65719H7.6573H8.13422C8.29633 4.29008 8.42777 4.15863 8.42777 3.99652C8.42777 3.83441 8.29633 3.70297 8.13422 3.70297H7.95066L7.95031 2.55508C7.95031 2.18648 8.25039 1.8866 8.61922 1.8866C8.98805 1.8866 9.28809 2.18648 9.28809 2.55508V7.98332H5.255V6.89012H6.27063C6.43273 6.89012 6.56418 6.75867 6.56418 6.59656C6.56418 6.43445 6.43277 6.30301 6.27063 6.30301H3.65227C3.49016 6.30301 3.35871 6.43445 3.35871 6.59656C3.35871 6.75867 3.49016 6.89012 3.65227 6.89012H4.66789V7.98332H1.18809C0.532969 7.98336 0 8.51633 0 9.17145C0 9.8266 0.532969 10.3596 1.18809 10.3596H1.48555C2.00848 13.7916 4.92898 16.3607 8.41066 16.4307V18.4113C8.4107 19.2873 9.12367 20 10 20C10.8763 20 11.5893 19.2873 11.5893 18.4113V16.4308C13.1446 16.3987 14.6646 15.8534 15.8843 14.8871C16.0113 14.7864 16.0327 14.6018 15.9321 14.4747C15.8314 14.3476 15.6468 14.3263 15.5197 14.4269C14.3652 15.3416 12.9175 15.8453 11.4434 15.8453H8.55656C5.33199 15.8453 2.60328 13.5091 2.07973 10.3596H6.27066C6.43277 10.3596 6.56422 10.2282 6.56422 10.066C6.56422 9.90387 6.43281 9.77246 6.27066 9.77246H1.18809C0.85668 9.77246 0.58707 9.50285 0.58707 9.17141C0.58707 8.84 0.85668 8.57039 1.18809 8.57039H18.8119C19.1433 8.57039 19.4129 8.84 19.4129 9.17141C19.4129 9.50281 19.1433 9.77246 18.8119 9.77246H7.44484C7.28273 9.77246 7.15129 9.90391 7.15129 10.066C7.15129 10.2281 7.28273 10.3596 7.44484 10.3596H17.9202C17.7161 11.5895 17.1732 12.7235 16.3382 13.6562C16.2301 13.777 16.2404 13.9626 16.3612 14.0707C16.4816 14.1786 16.6673 14.1689 16.7757 14.0478C17.7073 13.0071 18.3054 11.7366 18.5148 10.3595H18.8119C19.4671 10.3595 20 9.82656 20 9.17141C20 8.51633 19.467 7.98336 18.8119 7.98336ZM10 19.4129C9.44738 19.4129 8.99777 18.9636 8.99777 18.4113V16.4324H11.0022V18.4113C11.0022 18.9636 10.5526 19.4129 10 19.4129Z" fill="#444444"/>
</g>
<defs>
<clipPath id="clip0_2_1743">
<rect width="20" height="20" fill="white"/>
</clipPath>
</defs>
</svg>
