<svg width="20" height="20" viewBox="0 0 20 20" fill="none" xmlns="http://www.w3.org/2000/svg">
<path d="M8.0262 1.41113C7.34229 1.41113 6.78589 1.96754 6.78589 2.65145C6.78589 3.33539 7.34229 3.89176 8.0262 3.89176C8.71011 3.89176 9.26651 3.33535 9.26651 2.65145C9.26655 1.96754 8.71015 1.41113 8.0262 1.41113ZM8.0262 3.30582C7.66538 3.30582 7.37183 3.01227 7.37183 2.65145C7.37183 2.29062 7.66538 1.99707 8.0262 1.99707C8.38702 1.99707 8.68058 2.29062 8.68058 2.65145C8.68058 3.01227 8.38706 3.30582 8.0262 3.30582Z" fill="#444444"/>
<path d="M4.67098 1.41113C3.98707 1.41113 3.43066 1.96754 3.43066 2.65145C3.43066 3.33539 3.98707 3.89176 4.67098 3.89176C5.35488 3.89176 5.91129 3.33535 5.91129 2.65145C5.91129 1.96754 5.35488 1.41113 4.67098 1.41113ZM4.67098 3.30582C4.31016 3.30582 4.0166 3.01227 4.0166 2.65145C4.0166 2.29062 4.31016 1.99707 4.67098 1.99707C5.0318 1.99707 5.32535 2.29062 5.32535 2.65145C5.32535 3.01227 5.0318 3.30582 4.67098 3.30582Z" fill="#444444"/>
<path d="M15.4273 1.41113H12.0575C11.6893 1.41113 11.3896 1.71074 11.3896 2.07902V3.22391C11.3896 3.59219 11.6893 3.8918 12.0575 3.8918H15.4273C15.7956 3.8918 16.0952 3.59219 16.0952 3.22391V2.07902C16.0952 1.71074 15.7956 1.41113 15.4273 1.41113ZM15.5093 3.22391C15.5093 3.2691 15.4725 3.30586 15.4273 3.30586H12.0575C12.0123 3.30586 11.9756 3.2691 11.9756 3.22391V2.07902C11.9756 2.03383 12.0123 1.99707 12.0575 1.99707H15.4273C15.4725 1.99707 15.5093 2.03383 15.5093 2.07902V3.22391Z" fill="#444444"/>
<path d="M9.99978 6.00146C8.79811 6.00146 7.66107 6.38893 6.71166 7.12201C6.58357 7.22088 6.55994 7.40486 6.65881 7.53295C6.75771 7.66104 6.9417 7.68467 7.06975 7.5858C7.91568 6.93264 8.92885 6.5874 9.99978 6.5874C12.646 6.5874 14.7988 8.74025 14.7988 11.3865C14.7988 14.0327 12.646 16.1855 9.99978 16.1855C7.35357 16.1855 5.20072 14.0326 5.20072 11.3865C5.20072 10.285 5.58338 9.20904 6.27818 8.35666C6.38041 8.23123 6.36162 8.0467 6.23619 7.94447C6.11076 7.84225 5.92623 7.86104 5.824 7.98643C5.04424 8.94303 4.61475 10.1505 4.61475 11.3865C4.61475 14.3558 7.03045 16.7715 9.99975 16.7715C12.969 16.7715 15.3847 14.3558 15.3847 11.3865C15.3847 8.41717 12.9691 6.00146 9.99978 6.00146Z" fill="#444444"/>
<path d="M18.5262 17.7257V2.25164C18.5262 1.01008 17.5163 0 16.275 0H3.72488C2.48355 0 1.47363 1.01008 1.47363 2.25164V17.7488C1.47363 18.9901 2.48355 20 3.72484 20H16.2749C17.5051 20 18.5074 19.008 18.5253 17.782C18.5266 17.7711 18.5268 17.7334 18.5262 17.7257ZM17.9403 17.4558H15.5149C15.3531 17.4558 15.2219 17.587 15.2219 17.7488C15.2219 17.9105 15.3531 18.0417 15.5149 18.0417H17.9145C17.7756 18.8208 17.0933 19.4141 16.275 19.4141H3.72488C2.90656 19.4141 2.22422 18.8208 2.08539 18.0418H14.343C14.5048 18.0418 14.6359 17.9106 14.6359 17.7488C14.6359 17.587 14.5048 17.4558 14.343 17.4558H2.05961V5.30297H17.9403V17.4558ZM17.9403 4.71707H2.05957V2.25164C2.05957 1.33316 2.80664 0.585938 3.72488 0.585938H16.275C17.1932 0.585938 17.9403 1.33316 17.9403 2.25164V4.71707Z" fill="#444444"/>
<path d="M9.99977 7.3634C7.78137 7.3634 5.97656 9.16821 5.97656 11.3866C5.9766 11.5818 5.99063 11.777 6.01832 11.9669C6.01832 11.967 6.0184 11.9672 6.0184 11.9673C6.15539 12.9149 6.63 13.7854 7.355 14.4183C8.0873 15.0576 9.02656 15.4097 9.99973 15.4097C10.9729 15.4097 11.9121 15.0576 12.6445 14.4183C13.3694 13.7854 13.844 12.9151 13.9811 11.9675C13.9811 11.9673 13.9811 11.9671 13.9812 11.9669C14.0089 11.7772 14.0229 11.582 14.0229 11.3866C14.0229 9.16817 12.2181 7.3634 9.99977 7.3634ZM12.2591 13.9769C11.6336 14.523 10.8312 14.8238 9.99973 14.8238C9.16828 14.8238 8.3659 14.523 7.74035 13.9769C7.16637 13.4758 6.77602 12.8008 6.62871 12.0608L6.80934 11.9379C7.11121 11.7325 7.51973 11.7323 7.8218 11.9379C8.32055 12.2772 8.99461 12.2773 9.49348 11.9379C9.79488 11.7329 10.2045 11.7327 10.5059 11.9379C11.0049 12.2773 11.6787 12.2773 12.1778 11.9378C12.4804 11.732 12.8877 11.7318 13.19 11.9378L13.3707 12.0608C13.2235 12.8008 12.8332 13.4758 12.2591 13.9769ZM13.437 11.4009C13.4349 11.3997 13.4327 11.3986 13.4306 11.3974C13.2733 11.3059 13.1014 11.247 12.9226 11.2156C12.6987 11.1762 12.463 11.1945 12.2461 11.2614C12.1048 11.3051 11.9702 11.3701 11.848 11.4534C11.5459 11.659 11.1373 11.6587 10.8355 11.4534C10.5879 11.2849 10.2988 11.1958 9.99973 11.1958C9.7025 11.1958 9.40957 11.2863 9.16387 11.4534C8.86121 11.6592 8.45391 11.6591 8.15141 11.4534C7.90371 11.2848 7.61469 11.1957 7.31559 11.1957C7.05602 11.1957 6.79297 11.2657 6.56887 11.3974C6.5668 11.3986 6.56461 11.3997 6.56254 11.4009C6.5625 11.3961 6.5625 11.3913 6.5625 11.3865C6.56254 9.49126 8.10445 7.9493 9.99977 7.9493C11.8951 7.9493 13.437 9.49125 13.437 11.3865C13.437 11.3913 13.437 11.3961 13.437 11.4009Z" fill="#444444"/>
</svg>
