<svg width="64" height="63" viewBox="0 0 64 63" fill="none" xmlns="http://www.w3.org/2000/svg">
<path d="M60.0985 1.21736e-10H3.00988C2.21382 -7.11705e-06 1.45018 0.312061 0.886086 0.867905C0.32199 1.42375 0.00338558 2.1781 1.69973e-06 2.96585V59.4721C-0.000418632 59.8635 0.0771241 60.2512 0.228197 60.6129C0.379269 60.9746 0.600909 61.3034 0.880444 61.5803C1.15998 61.8572 1.49193 62.0769 1.85731 62.2268C2.2227 62.3766 2.61435 62.4538 3.00988 62.4538H60.0985C60.494 62.4538 60.8857 62.3766 61.2511 62.2268C61.6164 62.0769 61.9484 61.8572 62.2279 61.5803C62.5075 61.3034 62.7291 60.9746 62.8802 60.6129C63.0312 60.2512 63.1088 59.8635 63.1084 59.4721V2.96585C63.105 2.1781 62.7864 1.42375 62.2223 0.867905C61.6582 0.312061 60.8945 -7.11705e-06 60.0985 1.21736e-10ZM11.7996 44.2345L17.4867 34.1817C19.4571 37.5558 21.3762 40.8509 23.353 44.2345H11.7996ZM29.6382 52.1825C29.8301 51.7995 29.9933 51.483 30.15 51.1665C31.052 49.3306 31.6341 47.4125 30.8761 45.4183C30.4382 44.3 29.8415 43.2491 29.1041 42.2974C27.4664 40.1672 25.6496 38.1826 24.0151 36.0397C21.6417 32.9377 19.7929 29.5541 18.9293 25.7178C17.8034 20.6913 18.9869 16.3233 22.6845 12.6579C22.7676 12.5756 22.8572 12.4996 23.0715 12.3034C23.0171 12.8573 22.9787 13.253 22.934 13.6708C22.3486 19.1783 23.8935 24.1161 27.0538 28.6013C28.4931 30.6556 30.054 32.6275 31.4678 34.7008C33.2111 37.2583 34.6248 39.9868 35.1814 43.0697C35.9491 47.327 34.0683 50.5809 29.6414 52.1825H29.6382ZM45.8871 44.2694C44.5757 44.2694 43.2611 44.2694 41.9464 44.2694C41.7924 44.2882 41.6363 44.2587 41.5002 44.1848C41.3642 44.1109 41.255 43.9966 41.1884 43.8579C36.4011 35.6409 31.6107 27.4249 26.8171 19.21C26.7589 19.1078 26.7236 18.9944 26.7137 18.8775C26.7037 18.7606 26.7194 18.643 26.7595 18.5326C28.3012 15.801 29.8717 13.0884 31.4902 10.2713C38.0985 21.6092 44.6684 32.8807 51.3055 44.263L45.8871 44.2694Z" fill="#D10037"/>
</svg>
